<svg width="150" height="150" viewBox="0 0 150 150" fill="none" xmlns="http://www.w3.org/2000/svg">
<path d="M65.3367 52.5399L61.8211 49.0829L58.3055 52.5399L61.8211 55.9993L65.3367 52.5399ZM57.2344 40.9477L54.8906 43.2469L57.2344 45.5579L59.5781 43.2469L57.2344 40.9477ZM66.3352 48.436L68.6789 50.7446L71.0227 48.436L68.6789 46.1344L66.3352 48.436ZM62.993 61.4016L65.3367 63.7125L67.6805 61.4016L65.3367 59.1024L62.993 61.4016ZM49.9547 54.8461L47.6109 57.1524L49.9547 59.4563L52.2984 57.1524L49.9547 54.8461ZM67.6805 44.4L66.5086 43.2516L65.3367 44.4L66.5086 45.5579L67.6805 44.4ZM50.5922 37.7719L49.4203 36.6235L48.2484 37.7719L49.4203 38.9297L50.5922 37.7719ZM49.4203 40.943L48.2484 39.7946L47.0766 40.943L48.2484 42.0985L49.4203 40.943ZM67.507 55.9993L68.6789 57.1524L69.8508 55.9993L68.6789 54.8461L67.507 55.9993ZM51.1266 60.6094L52.2984 61.7625L53.4703 60.6094L52.2984 59.4563L51.1266 60.6094ZM61.8211 66.7149L62.993 67.8727L64.1649 66.7149L62.993 65.5665L61.8211 66.7149ZM118.13 57.2602L121.645 53.7985L118.13 50.3438L114.614 53.7985L118.13 57.2602ZM115.882 44.5079L113.538 42.204L111.195 44.5079L113.538 46.8141L115.882 44.5079ZM97.8656 38.3625L100.209 40.6688L102.553 38.3625L100.209 36.0563L97.8656 38.3625ZM110.107 67.868L107.763 65.5665L105.42 67.868L107.763 70.1766L110.107 67.868ZM124.983 52.0008L127.327 49.6946L124.983 47.3907L122.639 49.6946L124.983 52.0008ZM111.237 51.9633L108.893 49.6594L106.549 51.9633L108.893 54.2696L111.237 51.9633ZM123.989 45.661L122.817 44.5079L121.645 45.661L122.817 46.8141L123.989 45.661ZM114.71 37.2094L113.538 36.0563L112.366 37.2094L113.538 38.3625L114.71 37.2094ZM123.811 57.2555L124.983 58.4133L126.155 57.2555L124.983 56.1071L123.811 57.2555ZM110.107 63.2133L111.279 64.3688L112.451 63.2133L111.279 62.0625L110.107 63.2133ZM100.209 44.7704L101.381 45.9211L102.553 44.7704L101.381 43.6172L100.209 44.7704ZM113.442 68.475L114.614 69.6329L115.786 68.475L114.614 67.329L113.442 68.475ZM83.918 16.8211L81.5742 14.5172L79.2305 16.8211L81.5742 19.1274L83.918 16.8211ZM84.2742 26.0157L86.618 23.7118L84.2742 21.4055L81.9305 23.7118L84.2742 26.0157ZM76.8867 31.493L79.2305 33.7969L81.5742 31.493L79.2305 29.1868L76.8867 31.493ZM87.6703 15.3446L86.4984 14.1985L85.3266 15.3446L86.4984 16.5024L87.6703 15.3446ZM93.5484 20.175L92.3766 19.029L91.2047 20.175L92.3766 21.3352L93.5484 20.175ZM80.4023 21.3305L79.2305 20.1797L78.0586 21.3305L79.2305 22.486L80.4023 21.3305ZM75.7148 27.1688L76.8867 28.3219L78.0586 27.1688L76.8867 26.0157L75.7148 27.1688ZM69.8508 14.5172L68.6789 13.3641L67.507 14.5172L68.6789 15.6704L69.8508 14.5172ZM76.8867 12.211L75.7148 11.0579L74.543 12.211L75.7148 13.3641L76.8867 12.211Z" fill="black"/>
<path d="M145.312 61.9383C145.312 52.1648 140.252 44.8734 131.693 39.6422C126.204 33.9656 118.791 29.9836 110.412 28.6148C105.41 14.7328 91.4555 4.6875 75 4.6875C58.8305 4.6875 45.075 14.3812 39.8484 27.8859C34.4883 21.8625 29.475 16.1977 28.5328 15.0305C26.2945 12.2484 21.2555 7.44844 15.0516 7.44844C1.09453 7.44844 1.37812 16.6102 15.0516 17.2313C18.9656 17.4094 25.6617 23.6883 31.9383 30.6586C26.7776 32.6248 22.1127 35.7022 18.2742 39.6727C9.73828 44.8992 4.6875 52.1789 4.6875 61.9383C4.6875 96.1711 33.232 115.08 69.4875 116.813C68.5266 120.424 67.3922 123.619 66.0633 126.188C51.7102 127.317 41.1422 131.086 41.1422 135.574C41.1445 140.955 56.3039 145.312 75 145.312C93.7008 145.312 108.855 140.955 108.855 135.574C108.855 131.088 98.3086 127.322 83.9719 126.192C82.6687 123.628 81.5531 120.431 80.6016 116.808C116.812 115.05 145.312 96.143 145.312 61.9383ZM136.664 61.4836C132.009 74.2641 107.953 80.2383 78.4383 80.6648C81.6023 75.5156 83.4609 69.5742 83.4609 63.2133C83.4609 56.4773 81.3961 50.2008 77.8805 44.8477C83.8641 37.4695 93.3258 32.6719 103.992 32.6719C121.432 32.6695 135.694 45.4477 136.664 61.4836ZM75 9.29766C88.6102 9.29766 100.291 17.0812 105.232 28.118C104.815 28.1062 104.407 28.0594 103.99 28.0594C92.3109 28.0594 81.8883 33.1266 75.0211 41.018C68.1469 33.1172 57.6984 28.0594 46.0102 28.0594C45.6094 28.0594 45.218 28.1039 44.8195 28.1156C49.7602 17.0859 61.3992 9.29766 75 9.29766ZM13.3359 61.4836C14.3063 45.4477 28.568 32.6719 46.0078 32.6719C64.0734 32.6719 78.7711 46.3734 78.7711 63.2133C78.7711 69.7078 76.5703 75.7219 72.8484 80.6766C42.7547 80.407 18.0586 74.4492 13.3359 61.4836ZM91.0172 90.6773C81.0281 91.432 70.9805 91.2867 61.0664 90.0867C51.1547 88.9102 41.3508 86.7633 32.0531 83.325C41.85 84.9094 51.6 86.0109 61.3781 86.5008C71.1469 86.9508 80.9297 86.8992 90.6375 86.0836C100.348 85.3313 110.016 83.8875 119.395 81.4477C124.055 80.168 128.693 78.6914 132.987 76.5445C135.143 75.4969 137.189 74.2406 138.989 72.6914C140.747 71.1469 142.289 69.1758 142.568 66.7172C142.807 69.1922 141.555 71.6695 139.917 73.575C138.27 75.5156 136.242 77.0906 134.14 78.4898C129.884 81.232 125.222 83.2453 120.471 84.8719C110.944 88.1297 100.987 89.8125 91.0172 90.6773Z" fill="black"/>
</svg>
