<svg width="150" height="150" viewBox="0 0 150 150" fill="none" xmlns="http://www.w3.org/2000/svg">
<path d="M137.5 18.75L62.5 27.5625V37.5H137.5V43.75H62.5V75H137.5C137.5 86.3125 133.937 96.625 127 105.938C120.062 115.25 111.062 122.062 100 126.562V137.5H50V126.562C39 122.062 29.9375 115.188 23 105.938C16.0625 96.6875 12.5 86.3125 12.5 75H31.25V25L137.5 12.5V18.75ZM37.5 30.5V37.5H43.75V29.875L37.5 30.5ZM37.5 43.75V75H43.75V43.75H37.5ZM56.25 75V43.75H50V75H56.25ZM56.25 37.5V28.4375L50 29V37.5H56.25Z" fill="black"/>
</svg>
