<svg width="150" height="150" viewBox="0 0 150 150" fill="none" xmlns="http://www.w3.org/2000/svg">
<path d="M51.9225 36.2476C54.2307 31.9806 57.6762 28.4368 61.8765 26.0095C66.0768 23.5821 70.8676 22.3662 75.7171 22.4968C80.5665 22.6273 85.285 24.0991 89.3486 26.7489C93.4123 29.3986 96.6622 33.1227 98.7375 37.5076C93.2747 37.6316 87.9662 39.3438 83.4605 42.4351C78.9547 45.5263 75.4467 49.8629 73.365 54.9151C71.4466 51.7165 69.1473 48.7624 66.5175 46.1176C62.2917 41.9692 57.3461 38.6247 51.9225 36.2476ZM127.44 67.5001C127.867 61.0991 126.095 54.7442 122.416 49.4886C118.737 44.233 113.373 40.3922 107.213 38.6026C105.191 32.1983 101.306 26.5424 96.0532 22.3577C90.8007 18.173 84.4197 15.6497 77.7257 15.1102C71.0317 14.5708 64.3289 16.0397 58.4741 19.3293C52.6193 22.6189 47.8784 27.5797 44.8575 33.5776C41.8738 32.6501 38.8355 31.9087 35.76 31.3576C30.5579 30.4214 25.2806 29.9669 19.995 30.0001C19.5348 30.0084 19.0748 30.0234 18.615 30.0451H18.585C17.6681 30.1002 16.8033 30.4893 16.1538 31.1388C15.5043 31.7883 15.1152 32.6532 15.06 33.5701V33.5776C14.9979 35.2594 14.9954 36.943 15.0525 38.6251C15.15 41.6926 15.4725 45.9526 16.3425 50.7676C17.265 55.8826 18.825 61.7476 21.48 67.4926H18.75C17.7554 67.4926 16.8016 67.8876 16.0984 68.5909C15.3951 69.2942 15 70.248 15 71.2426V74.9926C15 80.1676 15.66 85.1926 16.89 89.9926H133.11C134.37 85.0922 135.005 80.0522 135 74.9926V71.2426C135 70.248 134.605 69.2942 133.902 68.5909C133.198 67.8876 132.245 67.4926 131.25 67.4926H127.44V67.5001ZM29.88 67.5001C26.625 61.6351 24.765 55.2076 23.73 49.4401C23.0217 45.5018 22.6155 41.5152 22.515 37.5151L23.37 37.5451C26.16 37.6426 30.045 37.9426 34.425 38.7376C43.275 40.3351 53.67 43.8751 61.215 51.4201C65.835 56.0401 68.9625 61.7401 71.0625 67.5001H57.81L43.905 53.5951C43.5563 53.2469 43.1425 52.9708 42.6872 52.7826C42.2318 52.5943 41.7438 52.4976 41.2511 52.498C40.7584 52.4983 40.2705 52.5957 39.8154 52.7846C39.3603 52.9735 38.9469 53.2501 38.5988 53.5988C38.2506 53.9475 37.9745 54.3613 37.7863 54.8166C37.598 55.272 37.5013 55.76 37.5017 56.2527C37.502 56.7454 37.5994 57.2333 37.7883 57.6884C37.9772 58.1435 38.2538 58.5569 38.6025 58.9051L47.205 67.5001H29.88ZM78.99 67.5001C78.9238 67.2971 78.8563 67.0946 78.7875 66.8926C78.6243 64.0631 79.046 61.2303 80.0263 58.5711C81.0066 55.9118 82.5244 53.4831 84.4851 51.4366C86.4458 49.39 88.8072 47.7695 91.422 46.6762C94.0368 45.5829 96.8489 45.0403 99.6828 45.0821C102.517 45.124 105.312 45.7494 107.893 46.9195C110.474 48.0895 112.787 49.779 114.686 51.8826C116.586 53.9861 118.031 56.4586 118.932 59.1456C119.834 61.8327 120.172 64.6766 119.925 67.5001H78.9975H78.99ZM75 135C63.0466 135 51.3656 131.43 41.4537 124.749C31.5417 118.068 23.8503 108.58 19.365 97.5001H130.643C126.157 108.581 118.464 118.07 108.551 124.751C98.6373 131.433 86.9546 135.001 75 135Z" fill="black"/>
</svg>
